# AST/ASF file generated using VICON BodyLanguage
# -----------------------------------------------
:version 1.10
:name VICON
:units
  mass 1.0
  length 0.45
  angle deg
:documentation
   .ast/.asf automatically generated from VICON data using
   VICON BodyBuilder and BodyLanguage model FoxedUp or BRILLIANT.MOD
:root
   order TX TY TZ RX RY RZ
   axis XYZ
   position 0 0 0  
   orientation 0 0 0 
:bonedata
  begin
     id 1 
     name lhipjoint
     direction 0.682418 -0.694059 0.22932 
     length 2.25561 
     axis 0 0 0  XYZ
  end
  begin
     id 2 
     name lfemur
     direction 0.34202 -0.939693 0  
     length 6.96448  
     axis 0 0 20  XYZ
    dof rx ry rz
    limits (-160.0 20.0)
           (-70.0 70.0)
           (-60.0 70.0)
  end
  begin
     id 3 
     name ltibia
     direction 0.34202 -0.939693 0   
     length 6.88553   
     axis 0 0 20   XYZ
    dof rx
    limits (-10.0 170.0)
  end
  begin
     id 4 
     name lfoot
     direction 0.0723587 -0.198804 0.977364   
     length 1.88518   
     axis -90 7.62852e-016 20   XYZ
    dof rx rz
    limits (-45.0 90.0)
           (-70.0 20.0)
  end
  begin
     id 5 
     name ltoes
     direction 1.53558e-011 -4.21962e-011 1   
     length 0.952124   
     axis -90 7.62852e-016 20   XYZ
    dof rx
    limits (-90.0 20.0)
  end
  begin
     id 6 
     name rhipjoint
     direction -0.657603 -0.71533 0.236348   
     length 2.18854  
     axis 0 0 0  XYZ 
  end
  begin
     id 7 
     name rfemur
     direction -0.34202 -0.939693 0   
     length 6.86686   
     axis 0 0 -20   XYZ
    dof rx ry rz
    limits (-160.0 20.0)
           (-70.0 70.0)
           (-70.0 60.0)
  end
  begin
     id 8 
     name rtibia
     direction -0.34202 -0.939693 0   
     length 6.59503   
     axis 0 0 -20   XYZ
    dof rx
    limits (-10.0 170.0)
 end
 begin
     id 9 
     name rfoot
     direction -0.101977 -0.280179 0.954516   
     length 1.93723  
     axis -90 -7.62852e-016 -20   XYZ
    dof rx rz
    limits (-45.0 90.0)
           (-20.0 70.0)
  end
  begin
     id 10 
     name rtoes
     direction -1.53564e-011 -4.21897e-011 1   
     length 0.970315   
     axis -90 -7.62852e-016 -20   XYZ
    dof rx
    limits (-90.0 20.0)
  end
  begin
     id 11 
     name lowerback
     direction -0.0339559 0.999421 -0.00235966   
     length 1.88543   
     axis 0 0 0   XYZ
    dof rx ry rz
    limits (-20.0 45.0)
           (-30.0 30.0)
           (-30.0 30.0)
  end
  begin
     id 12 
     name upperback
     direction 0.00401003 0.999739 0.0224689   
     length 1.8856   
     axis 0 0 0   XYZ
    dof rx ry rz
    limits (-20.0 45.0)
           (-30.0 30.0)
           (-30.0 30.0)
  end
  begin
     id 13 
     name thorax
     direction 0.0198619 0.999546 0.0226536   
     length 1.88352   
     axis 0 0 0   XYZ
    dof rx ry rz
    limits (-20.0 45.0)
           (-30.0 30.0)
           (-30.0 30.0)
  end
  begin
     id 14 
     name lowerneck
     direction -0.0461848 0.998632 0.0245198   
     length 1.34895   
     axis 0 0 0   XYZ
    dof rx ry rz
    limits (-20.0 45.0)
           (-30.0 30.0)
           (-30.0 30.0)
  end
  begin
     id 15 
     name upperneck
     direction -0.0180627 0.994724 -0.100984   
     length 1.35214   
     axis 0 0 0   XYZ
    dof rx ry rz
    limits (-20.0 45.0)
           (-30.0 30.0)
           (-30.0 30.0)
  end
  begin
     id 16
     name head
     direction -0.00374772 0.999293 -0.037403  
     length 1.3568  
     axis 0 0 0   XYZ
    dof rx ry rz
    limits (-20.0 45.0)
           (-30.0 30.0)
           (-30.0 30.0)
  end
  begin
     id 17 
     name lclavicle
     direction 0.971773 0.191119 0.138311  
     length 2.84954  
     axis 0 0 0   XYZ
    dof ry rz
    limits (-20.0 10.0)
           (0.0 20.0)
  end
  begin
     id 18 
     name lhumerus
     direction 1 -4.4897e-011 -2.43761e-027   
     length 4.40919   
     axis 180 -30 -90   XYZ
    dof rx ry rz
    limits (-60.0 90.0)
           (-90.0 90.0)
           (-90.0 90.0)
  end
  begin
     id 19
     name lradius
     direction 1 -4.4896e-011 -9.1621e-027   
     length 3.03857   
     axis 180 -30 -90   XYZ
    dof rx
    limits (-10.0 170.0)
  end
  begin
     id 20
     name lwrist
     direction 1 -4.4896e-011 -1.41363e-026   
     length 1.51928   
     axis 1.07133e-014 90 90   XYZ
    dof ry
    limits (-180.0 0.0)
 end
  begin
     id 21 
     name lhand
     direction 1 -4.48978e-011 -2.82725e-026   
     length 0.523208   
     axis 1.80403e-014 90 90   XYZ
    dof rx rz
    limits (-90.0 90.0)
           (-45.0 45.0)
  end
  begin
     id 22 
     name lfingers
     direction 1 -4.48977e-011 -5.6545e-026   
     length 0.421824   
     axis 3.60806e-014 90 90   XYZ
    dof rx
    limits (0.0 90.0)
  end
  begin
     id 23
     name lthumb
     direction 0.707107 -6.34962e-011 0.707107   
     length 0.605657   
     axis -90 45 2.85299e-015   XYZ
    dof rx rz
    limits (-45.0 45.0)
           (-45.0 45.0)
  end
  begin
     id 24 
     name rclavicle
     direction -0.957247 0.24311 0.156766   
     length 3.12406  
     axis 0 0 0   XYZ 
    dof ry rz
    limits (-10.0 20.0)
           (-20.0 0.0)
  end
  begin
     id 25 
     name rhumerus
     direction -1 -4.48964e-011 -1.70632e-027  
     length 4.61969   
     axis 180 30 90   XYZ
    dof rx ry rz
    limits (-90.0 60.0)
           (-90.0 90.0)
           (-90.0 90.0)
  end
  begin
     id 26 
     name rradius
     direction -1 -4.48966e-011 -6.60395e-027   
     length 3.09382   
     axis 180 30 90   XYZ
    dof rx
    limits (-10.0 170.0)
  end
  begin
     id 27 
     name rwrist
     direction -1 -4.48963e-011 -1.41363e-026   
     length 1.54691   
     axis 1.07133e-014 -90 -90   XYZ
    dof ry
    limits (-180.0 0.0)
  end
  begin
     id 28
     name rhand
     direction -1 -4.49013e-011 -2.82725e-026   
     length 0.500896   
     axis 1.80403e-014 -90 -90   XYZ
    dof rx rz
    limits (-90.0 90.0)
           (-45.0 45.0)
  end
  begin
     id 29
     name rfingers
     direction -1 -4.48902e-011 -5.6545e-026   
     length 0.403835   
     axis 3.60806e-014 -90 -90   XYZ
    dof rx
    limits (0.0 90.0)
  end
  begin
     id 30
     name rthumb
     direction -0.707107 -6.34953e-011 0.707107   
     length 0.579829   
     axis -90 -45 -2.85299e-015   XYZ
    dof rx rz
    limits (-45.0 45.0)
           (-45.0 45.0)
  end
:hierarchy
  begin
    root lhipjoint rhipjoint lowerback
    lhipjoint lfemur
    lfemur ltibia
    ltibia lfoot
    lfoot ltoes
    rhipjoint rfemur
    rfemur rtibia
    rtibia rfoot
    rfoot rtoes
    lowerback upperback
    upperback thorax
    thorax lowerneck lclavicle rclavicle
    lowerneck upperneck
    upperneck head
    lclavicle lhumerus
    lhumerus lradius
    lradius lwrist
    lwrist lhand lthumb
    lhand lfingers
    rclavicle rhumerus
    rhumerus rradius
    rradius rwrist
    rwrist rhand rthumb
    rhand rfingers
  end

#!OML:ASF E:\madness\Project 1\Capture day 1\Session 1\Female1.ASF
:FULLY-SPECIFIED
:DEGREES
262
root 32.5532 16.0641 1.08237 -169.018 -88.4774 176.708
lowerback -3.1491 -0.769208 -6.32778
upperback -2.82248 -0.930296 2.12663
thorax -1.02171 -0.36815 5.74466
lowerneck -1.13111 4.45553 2.0979
upperneck 3.30415 6.09521 -7.29323
head 1.55876 2.93127 -2.57595
rclavicle 1.71452e-015 1.8487e-014
rhumerus -61.7648 32.3046 -80.022
rradius 45.6711
rwrist 4.96756
rhand -1.34888 -48.9484
rfingers 7.12502
rthumb 24.2978 -77.4285
lclavicle 1.71452e-015 1.8487e-014
lhumerus -79.0601 -34.3458 86.1894
lradius 65.3791
lwrist -9.50026
lhand -10.8381 -19.4549
lfingers 7.12502
lthumb 15.1765 9.96857
rfemur -18.5901 9.71415 20.2507
rtibia 28.4997
rfoot -18.8502 -19.5049
rtoes 6.77536
lfemur -22.7126 -11.8925 -15.8144
ltibia 33.7689
lfoot -9.30702 10.8867
ltoes -13.796
263
root 32.549 16.058 1.08616 -172.589 -88.4946 180.196
lowerback -3.06432 -0.713758 -6.17961
upperback -2.77643 -0.862145 2.14972
thorax -1.03211 -0.336413 5.68678
lowerneck -1.07165 4.49427 2.26201
upperneck 3.44324 6.15694 -7.49843
head 1.61162 2.95815 -2.67361
rclavicle 3.55328e-015 -1.21259e-014
rhumerus -61.9841 32.1409 -79.8946
rradius 46.4125
rwrist 4.32201
rhand -1.10842 -49.2905
rfingers 7.12502
rthumb 24.5283 -77.7395
lclavicle 3.55328e-015 -1.21259e-014
lhumerus -78.8552 -34.3466 85.8014
lradius 66.1539
lwrist -9.29274
lhand -11.5766 -19.631
lfingers 7.12502
lthumb 14.4649 9.84486
rfemur -18.4926 9.5426 20.3753
rtibia 28.5446
rfoot -18.8969 -19.3942
rtoes 6.64936
lfemur -22.7607 -12.1459 -15.6426
ltibia 34.0078
lfoot -9.48215 10.7838
ltoes -14.128
264
root 32.5453 16.0537 1.0886 -178.084 -88.5081 185.626
lowerback -3.05247 -0.636719 -6.02075
upperback -2.72496 -0.761189 2.21533
thorax -1.00014 -0.289853 5.66734
lowerneck -0.897463 4.57799 2.53663
upperneck 3.52044 6.27865 -7.866
head 1.63944 3.01691 -2.84799
rclavicle -2.26739e-016 1.39149e-015
rhumerus -62.1903 31.9191 -79.6819
rradius 47.0747
rwrist 3.85123
rhand -1.28373 -49.3736
rfingers 7.12502
rthumb 24.3602 -77.8453
lclavicle -2.26739e-016 1.39149e-015
lhumerus -78.5957 -34.3441 85.3893
lradius 66.957
lwrist -9.08597
lhand -11.4655 -20.0808
lfingers 7.12502
lthumb 14.5721 9.38737
rfemur -18.4221 9.34111 20.5602
rtibia 28.6533
rfoot -19.0027 -19.2735
rtoes 6.24374
lfemur -22.8132 -12.462 -15.4207
ltibia 34.2693
lfoot -9.59418 10.8811
ltoes -13.9266
265
root 32.5435 16.0453 1.08919 -183.223 -88.5985 190.69
lowerback -3.02424 -0.532289 -5.96055
upperback -2.65828 -0.621982 2.30277
thorax -0.9662 -0.222672 5.72814
lowerneck -0.549488 4.6754 3.00863
upperneck 3.27836 6.40554 -8.44419
head 1.55139 3.08888 -3.13745
rclavicle 1.93815e-015 -1.98785e-016
rhumerus -62.3559 31.5905 -79.3767
rradius 47.5194
rwrist 3.75232
rhand -1.85229 -48.8949
rfingers 7.12502
rthumb 23.8151 -77.4388
lclavicle 1.93815e-015 -1.98785e-016
lhumerus -78.2145 -34.4567 85.0089
lradius 67.7396
lwrist -9.07719
lhand -12.0654 -19.3368
lfingers 7.12502
lthumb 13.994 10.1722
rfemur -18.3426 9.24367 20.7193
rtibia 28.7517
rfoot -19.1381 -19.3001
rtoes 6.01592
lfemur -22.8707 -12.5322 -15.2592
ltibia 34.5129
lfoot -9.65916 10.8306
ltoes -14.2497
266
root 32.5431 16.0311 1.09218 -185.899 -88.78 193.343
lowerback -2.91621 -0.4197 -5.91462
upperback -2.65658 -0.477968 2.3189
thorax -1.04563 -0.147983 5.72306
lowerneck -0.522147 4.76337 3.42011
upperneck 3.33048 6.53521 -8.90513
head 1.60991 3.15053 -3.37011
rclavicle 8.85524e-015 -6.16232e-015
rhumerus -62.6467 31.1187 -79.1147
rradius 47.9186
rwrist 3.83617
rhand -2.51517 -48.0849
rfingers 7.12502
rthumb 23.1792 -76.7102
lclavicle 8.85524e-015 -6.16232e-015
lhumerus -77.8898 -34.7232 84.6703
lradius 68.5779
lwrist -9.161
lhand -12.3338 -19.0626
lfingers 7.12502
lthumb 13.7353 10.4641
rfemur -18.3294 9.0613 20.7641
rtibia 28.8121
rfoot -19.1966 -19.336
rtoes 5.49359
lfemur -23.0019 -12.3677 -15.2258
ltibia 34.6786
lfoot -9.54689 10.6245
ltoes -15.5722
267
root 32.5421 16.0275 1.09678 -188.643 -88.8764 196.123
lowerback -2.94787 -0.337902 -5.79621
upperback -2.62955 -0.368519 2.32815
thorax -1.01542 -0.0964038 5.66726
lowerneck -0.771152 4.92158 3.55912
upperneck 3.71734 6.77521 -9.13696
head 1.81505 3.25257 -3.46277
rclavicle 6.89534e-016 -9.14409e-015
rhumerus -62.8517 30.7915 -78.9028
rradius 48.3267
rwrist 3.77567
rhand -3.1302 -47.5802
rfingers 7.12502
rthumb 22.589 -76.2786
lclavicle 6.89534e-016 -9.14409e-015
lhumerus -77.5641 -34.904 84.3287
lradius 69.3961
lwrist -9.13683
lhand -12.5217 -18.9534
lfingers 7.12502
lthumb 13.5542 10.5855
rfemur -18.39 8.79656 20.8007
rtibia 28.894
rfoot -19.1772 -19.2694
rtoes 4.5542
lfemur -23.1216 -12.3054 -15.1788
ltibia 34.7357
lfoot -9.65529 10.4907
ltoes -16.1224
268
root 32.5409 16.0322 1.09996 -193.648 -88.9715 201.131
lowerback -2.98114 -0.314217 -5.73271
upperback -2.55564 -0.334192 2.41943
thorax -0.924684 -0.0840916 5.72723
lowerneck -0.942447 5.19962 3.32709
upperneck 3.91647 7.16238 -9.09737
head 1.92668 3.43277 -3.3886
rclavicle 1.59028e-015 -1.07344e-014
rhumerus -62.9234 30.6875 -78.6528
rradius 48.7344
rwrist 3.55872
rhand -3.83851 -47.2531
rfingers 7.12502
rthumb 21.909 -76.0325
lclavicle 1.59028e-015 -1.07344e-014
lhumerus -77.1819 -34.9075 84.0281
lradius 70.1262
lwrist -9.0999
lhand -12.8058 -18.843
lfingers 7.12502
lthumb 13.2804 10.7139
rfemur -18.4024 8.56565 20.8782
rtibia 28.9885
rfoot -19.1766 -19.2034
rtoes 4.02414
lfemur -23.1228 -12.4944 -15.0839
ltibia 34.6833
lfoot -9.96245 10.5027
ltoes -15.7248
